<?xml version="1.0" encoding="UTF-8" standalone="no"?>
<!-- Created with Inkscape (http://www.inkscape.org/) -->

<svg
   xmlns:dc="http://purl.org/dc/elements/1.1/"
   xmlns:cc="http://creativecommons.org/ns#"
   xmlns:rdf="http://www.w3.org/1999/02/22-rdf-syntax-ns#"
   xmlns:svg="http://www.w3.org/2000/svg"
   xmlns="http://www.w3.org/2000/svg"
   xmlns:xlink="http://www.w3.org/1999/xlink"
   xmlns:sodipodi="http://sodipodi.sourceforge.net/DTD/sodipodi-0.dtd"
   xmlns:inkscape="http://www.inkscape.org/namespaces/inkscape"
   id="svg2"
   version="1.1"
   inkscape:version="0.92.4 (5da689c313, 2019-01-14)"
   width="494"
   height="202.70726"
   viewBox="0 0 494 202.70726"
   sodipodi:docname="cordova.svg">
  <metadata
     id="metadata8">
    <rdf:RDF>
      <cc:Work
         rdf:about="">
        <dc:format>image/svg+xml</dc:format>
        <dc:type
           rdf:resource="http://purl.org/dc/dcmitype/StillImage" />
        <dc:title></dc:title>
      </cc:Work>
    </rdf:RDF>
  </metadata>
  <defs
     id="defs6">
    <linearGradient
       inkscape:collect="always"
       id="linearGradient4848">
      <stop
         style="stop-color:#ffffff;stop-opacity:1;"
         offset="0"
         id="stop4850" />
      <stop
         style="stop-color:#ffffff;stop-opacity:0;"
         offset="1"
         id="stop4852" />
    </linearGradient>
    <linearGradient
       inkscape:collect="always"
       id="linearGradient4836">
      <stop
         style="stop-color:#ffffff;stop-opacity:1"
         offset="0"
         id="stop4838" />
      <stop
         id="stop4846"
         offset="0.5"
         style="stop-color:#ffffff;stop-opacity:0.53170735" />
      <stop
         style="stop-color:#ffffff;stop-opacity:0"
         offset="1"
         id="stop4840" />
    </linearGradient>
    <linearGradient
       inkscape:collect="always"
       id="linearGradient4812">
      <stop
         style="stop-color:#e5e5e5;stop-opacity:1"
         offset="0"
         id="stop4814" />
      <stop
         style="stop-color:#ffffff;stop-opacity:1"
         offset="1"
         id="stop4816" />
    </linearGradient>
    <linearGradient
       id="linearGradient4788"
       inkscape:collect="always">
      <stop
         id="stop4790"
         offset="0"
         style="stop-color:#24303a;stop-opacity:1" />
      <stop
         id="stop4792"
         offset="1"
         style="stop-color:#394958;stop-opacity:1" />
    </linearGradient>
    <linearGradient
       inkscape:collect="always"
       id="linearGradient4763">
      <stop
         style="stop-color:#25303b;stop-opacity:1;"
         offset="0"
         id="stop4765" />
      <stop
         style="stop-color:#25303b;stop-opacity:0;"
         offset="1"
         id="stop4767" />
    </linearGradient>
    <linearGradient
       inkscape:collect="always"
       id="linearGradient3444">
      <stop
         style="stop-color:#acacac;stop-opacity:1"
         offset="0"
         id="stop3446" />
      <stop
         style="stop-color:#e9e9e9;stop-opacity:1"
         offset="1"
         id="stop3448" />
    </linearGradient>
    <linearGradient
       inkscape:collect="always"
       xlink:href="#linearGradient3444"
       id="linearGradient3450"
       x1="386.67145"
       y1="402.39362"
       x2="70.076378"
       y2="198.42131"
       gradientUnits="userSpaceOnUse"
       gradientTransform="translate(-14.849242,-10.606602)" />
    <filter
       style="color-interpolation-filters:sRGB"
       inkscape:label="Blur"
       id="filter4506">
      <feGaussianBlur
         stdDeviation="2 2"
         result="blur"
         id="feGaussianBlur4508" />
    </filter>
    <filter
       style="color-interpolation-filters:sRGB"
       inkscape:label="Drop Shadow"
       id="filter4548">
      <feFlood
         flood-opacity="0.498039"
         flood-color="rgb(0,0,0)"
         result="flood"
         id="feFlood4550" />
      <feComposite
         in="flood"
         in2="SourceGraphic"
         operator="in"
         result="composite1"
         id="feComposite4552" />
      <feGaussianBlur
         in="composite1"
         stdDeviation="3"
         result="blur"
         id="feGaussianBlur4554" />
      <feOffset
         dx="6"
         dy="6"
         result="offset"
         id="feOffset4556" />
      <feComposite
         in="SourceGraphic"
         in2="offset"
         operator="over"
         result="composite2"
         id="feComposite4558" />
    </filter>
    <filter
       inkscape:collect="always"
       style="color-interpolation-filters:sRGB"
       id="filter4539"
       x="-0.2009301"
       width="1.4018602"
       y="-0.053703275"
       height="1.1074065">
      <feGaussianBlur
         inkscape:collect="always"
         stdDeviation="1.1101047"
         id="feGaussianBlur4541" />
    </filter>
    <filter
       inkscape:collect="always"
       style="color-interpolation-filters:sRGB"
       id="filter4710"
       x="-0.41497111"
       width="1.8299422"
       y="-0.11091075"
       height="1.2218215">
      <feGaussianBlur
         inkscape:collect="always"
         stdDeviation="2.2926451"
         id="feGaussianBlur4712" />
    </filter>
    <radialGradient
       inkscape:collect="always"
       xlink:href="#linearGradient4763"
       id="radialGradient4773"
       gradientUnits="userSpaceOnUse"
       gradientTransform="matrix(0.92307901,-11.507692,-5.8964407,-0.47303508,-2165.6993,4248.2015)"
       cx="355.75"
       cy="-334.76251"
       fx="355.75"
       fy="-334.76251"
       r="16.25" />
    <linearGradient
       inkscape:collect="always"
       xlink:href="#linearGradient4788"
       id="linearGradient4786"
       x1="342.03372"
       y1="321.84552"
       x2="326.44727"
       y2="136.70703"
       gradientUnits="userSpaceOnUse"
       gradientTransform="translate(-14.849242,-10.606602)" />
    <linearGradient
       inkscape:collect="always"
       xlink:href="#linearGradient4788"
       id="linearGradient4796"
       gradientUnits="userSpaceOnUse"
       x1="342.03372"
       y1="321.84552"
       x2="326.44727"
       y2="136.70703"
       gradientTransform="matrix(-1,0,0,1,477.73843,-10.606602)" />
    <linearGradient
       inkscape:collect="always"
       xlink:href="#linearGradient4812"
       id="linearGradient4818"
       x1="367.77502"
       y1="117.79706"
       x2="107"
       y2="143.95703"
       gradientUnits="userSpaceOnUse"
       gradientTransform="translate(-14.849242,-10.606602)" />
    <linearGradient
       inkscape:collect="always"
       xlink:href="#linearGradient4836"
       id="linearGradient4842"
       x1="182.22809"
       y1="190.19418"
       x2="182.22809"
       y2="317.94031"
       gradientUnits="userSpaceOnUse" />
    <linearGradient
       inkscape:collect="always"
       xlink:href="#linearGradient4848"
       id="linearGradient4854"
       x1="193.99423"
       y1="190.19418"
       x2="193.99423"
       y2="126.35043"
       gradientUnits="userSpaceOnUse" />
    <filter
       inkscape:collect="always"
       style="color-interpolation-filters:sRGB"
       id="filter5181"
       x="-0.13082987"
       width="1.2616597"
       y="-0.35760725"
       height="1.7152145">
      <feGaussianBlur
         inkscape:collect="always"
         stdDeviation="19.20073"
         id="feGaussianBlur5183" />
    </filter>
  </defs>
  <sodipodi:namedview
     pagecolor="#ffffff"
     bordercolor="#666666"
     borderopacity="1"
     objecttolerance="10"
     gridtolerance="10"
     guidetolerance="10"
     inkscape:pageopacity="0"
     inkscape:pageshadow="2"
     inkscape:window-width="1600"
     inkscape:window-height="877"
     id="namedview4"
     showgrid="false"
     showguides="true"
     inkscape:guide-bbox="true"
     inkscape:zoom="1.9998966"
     inkscape:cx="236.37921"
     inkscape:cy="94.56701"
     inkscape:window-x="-8"
     inkscape:window-y="-8"
     inkscape:window-maximized="1"
     inkscape:current-layer="text4203"
     inkscape:snap-bbox="true"
     inkscape:bbox-paths="true"
     inkscape:bbox-nodes="true"
     inkscape:snap-bbox-edge-midpoints="true"
     inkscape:snap-bbox-midpoints="true"
     inkscape:object-nodes="true"
     inkscape:snap-intersection-paths="true"
     inkscape:object-paths="true"
     inkscape:snap-smooth-nodes="true"
     inkscape:snap-global="false"
     fit-margin-top="0"
     fit-margin-left="0"
     fit-margin-right="0"
     fit-margin-bottom="0" />
  <path
     style="fill:#000000;fill-opacity:0.56862745;fill-rule:evenodd;stroke:none;stroke-width:1px;stroke-linecap:butt;stroke-linejoin:miter;stroke-opacity:1;filter:url(#filter5181)"
     d="M 407.21131,433.21178 326.65076,304.35043 h -191.5 l -80.166,128.84375 z"
     id="path5096"
     inkscape:connector-curvature="0"
     transform="matrix(0.39753348,0,0,0.35219402,-1.4477265,33.902937)" />
  <g
     id="g5122"
     transform="matrix(0.51194041,0,0,0.51194041,-27.886942,-31.151793)">
    <path
       style="fill:#7f8082;fill-opacity:1;fill-rule:evenodd;stroke:none;stroke-width:1px;stroke-linecap:butt;stroke-linejoin:miter;stroke-opacity:1"
       d="m 341.15271,349.75084 -23.10547,48.26758 -15.9099,-60.10408 z"
       id="path4824"
       inkscape:connector-curvature="0"
       sodipodi:nodetypes="cccc" />
    <path
       sodipodi:nodetypes="cccc"
       inkscape:connector-curvature="0"
       id="path4822"
       d="m 128.40662,349.75084 15.73047,48.26758 15.9099,-60.10408 z"
       style="fill:#7f8082;fill-opacity:1;fill-rule:evenodd;stroke:none;stroke-width:1px;stroke-linecap:butt;stroke-linejoin:miter;stroke-opacity:1" />
    <path
       inkscape:connector-curvature="0"
       id="path3439"
       d="m 54.984742,190.19418 -0.01172,0.0176 32.791014,207.80664 h 56.373054 l -4.60547,-48.26758 h 28.92383 l 3.68359,48.26758 h 118.08984 l 3.6836,-48.26758 h 28.74023 l -4.60547,48.26758 h 56.74024 l 32.42383,-207.80664 -0.0117,-0.0176 H 54.98476 Z"
       style="fill:url(#linearGradient3450);fill-opacity:1;fill-rule:evenodd;stroke:#d6d6d6;stroke-width:1px;stroke-linecap:butt;stroke-linejoin:round;stroke-opacity:1" />
    <path
       style="fill:url(#radialGradient4773);fill-opacity:1;fill-rule:evenodd;stroke:none;stroke-width:1px;stroke-linecap:butt;stroke-linejoin:miter;stroke-opacity:1"
       d="m 135.55849,317.93931 16.95592,-63.52818 -1.19223,-128.31045 -31.799,64.0935 z"
       id="path4771"
       inkscape:connector-curvature="0"
       sodipodi:nodetypes="ccccc" />
    <path
       sodipodi:nodetypes="ccccc"
       inkscape:connector-curvature="0"
       id="path4776"
       d="m 257.328,113.53179 h 70.27003 l -1.44288,155.31435 h -74.24552 z"
       style="fill:#293441;fill-opacity:1;fill-rule:evenodd;stroke:none;stroke-width:1px;stroke-linecap:butt;stroke-linejoin:miter;stroke-opacity:1" />
    <path
       style="fill:#293441;fill-opacity:1;fill-rule:evenodd;stroke:none;stroke-width:1px;stroke-linecap:butt;stroke-linejoin:miter;stroke-opacity:1"
       d="m 206.49966,113.62857 -68.4447,0.0422 1.62166,154.62151 h 69.68419 z"
       id="path4778"
       inkscape:connector-curvature="0"
       sodipodi:nodetypes="ccccc" />
    <path
       sodipodi:nodetypes="ccccc"
       inkscape:connector-curvature="0"
       id="path4735"
       d="m 145.13904,254.41098 -9.58008,63.5293 h 191.625 L 315.79334,254.8641 Z"
       style="fill:#2d3948;fill-opacity:1;fill-rule:evenodd;stroke:none;stroke-width:1px;stroke-linecap:butt;stroke-linejoin:miter;stroke-opacity:1" />
    <path
       sodipodi:nodetypes="ccccc"
       inkscape:connector-curvature="0"
       id="path4761"
       d="m 327.18449,317.9405 -16.64092,-63.07721 0.6253,-129.16888 32.19531,64.49609 z"
       style="fill:url(#linearGradient4786);fill-opacity:1;fill-rule:evenodd;stroke:none;stroke-width:1px;stroke-linecap:butt;stroke-linejoin:miter;stroke-opacity:1" />
    <path
       style="fill:url(#linearGradient4796);fill-opacity:1;fill-rule:evenodd;stroke:none;stroke-width:1px;stroke-linecap:butt;stroke-linejoin:miter;stroke-opacity:1"
       d="m 135.7047,317.9405 16.80971,-63.52937 -1.19223,-128.31045 -31.79717,64.08982 z"
       id="path4794"
       inkscape:connector-curvature="0"
       sodipodi:nodetypes="ccccc" />
    <path
       sodipodi:nodetypes="ccccc"
       inkscape:connector-curvature="0"
       id="path4739"
       d="m 199.31573,149.42759 6.32722,134.88013 h 49.28521 l 7.93879,-134.88013 z"
       style="fill:#2d3b48;fill-opacity:1;fill-rule:evenodd;stroke:none;stroke-width:1px;stroke-linecap:butt;stroke-linejoin:round;stroke-opacity:1" />
    <path
       sodipodi:nodetypes="ccccccccccccc"
       inkscape:connector-curvature="0"
       id="path4810"
       d="M 407.19961,190.19418 326.65076,61.350428 h -191.5 l -80.166,128.843752 h 64.54072 l 31.62528,-63.84375 h 52 l -3.83503,23.07716 h 63.55122 l -3.35876,-23.77646 h 51.79557 l 32.05995,64.54305 z"
       style="fill:url(#linearGradient4818);fill-opacity:1;fill-rule:evenodd;stroke:#d6d6d6;stroke-width:1px;stroke-linecap:butt;stroke-linejoin:round;stroke-opacity:1" />
    <path
       sodipodi:nodetypes="ccccccc"
       inkscape:connector-curvature="0"
       id="path4826"
       d="m 259.50819,125.65113 52.2352,0.0433 31.62032,64.49975 -16.17975,127.7461 -121.54101,2e-5 62.82234,-127.74612 z"
       style="opacity:0.44900004;fill:#363f49;fill-opacity:1;fill-rule:evenodd;stroke:none;stroke-width:1px;stroke-linecap:butt;stroke-linejoin:miter;stroke-opacity:1" />
    <path
       sodipodi:nodetypes="ccccc"
       inkscape:connector-curvature="0"
       id="path4832"
       d="M 268.46529,190.19418 205.64295,317.9403 135.55849,317.93931 119.52318,190.19418 Z"
       style="opacity:0.3;fill:url(#linearGradient4842);fill-opacity:1;fill-rule:evenodd;stroke:none;stroke-width:1px;stroke-linecap:butt;stroke-linejoin:miter;stroke-opacity:1" />
    <path
       sodipodi:nodetypes="ccccccc"
       inkscape:connector-curvature="0"
       id="path4834"
       d="m 151.15076,126.35043 h 52 l -3.83503,23.07716 h 63.55122 l 5.59834,40.76659 H 119.52318 Z"
       style="opacity:0.2;fill:url(#linearGradient4854);fill-opacity:1;fill-rule:evenodd;stroke:none;stroke-width:1px;stroke-linecap:butt;stroke-linejoin:miter;stroke-opacity:1" />
    <g
       transform="translate(-14.849242,-10.606602)"
       id="g4749">
      <g
         id="g4722"
         transform="matrix(0.89997913,0,0,0.97774567,-1.4952307,573.7235)">
        <ellipse
           transform="matrix(1.4992885,0,0,1.3077391,-75.688852,99.470993)"
           style="color:#000000;clip-rule:nonzero;display:inline;overflow:visible;visibility:visible;opacity:0.8;isolation:auto;mix-blend-mode:normal;color-interpolation:sRGB;color-interpolation-filters:linearRGB;solid-color:#000000;solid-opacity:1;fill:#05f0ff;fill-opacity:1;fill-rule:nonzero;stroke:none;stroke-width:3;stroke-linecap:round;stroke-linejoin:miter;stroke-miterlimit:4;stroke-dasharray:none;stroke-dashoffset:0;stroke-opacity:1;marker:none;filter:url(#filter4710);color-rendering:auto;image-rendering:auto;shape-rendering:auto;text-rendering:auto;enable-background:accumulate"
           id="ellipse3463"
           cx="272.59341"
           cy="-325.39865"
           rx="6.6297965"
           ry="24.805298" />
        <ellipse
           style="color:#000000;clip-rule:nonzero;display:inline;overflow:visible;visibility:visible;opacity:0.9;isolation:auto;mix-blend-mode:normal;color-interpolation:sRGB;color-interpolation-filters:linearRGB;solid-color:#000000;solid-opacity:1;fill:#ffffff;fill-opacity:1;fill-rule:nonzero;stroke:#06effe;stroke-width:0.91774952;stroke-linecap:round;stroke-linejoin:miter;stroke-miterlimit:4;stroke-dasharray:none;stroke-dashoffset:0;stroke-opacity:1;marker:none;filter:url(#filter4539);color-rendering:auto;image-rendering:auto;shape-rendering:auto;text-rendering:auto;enable-background:accumulate"
           id="ellipse4390"
           cx="289.15836"
           cy="-326.0542"
           rx="6.6297965"
           ry="24.805298"
           transform="matrix(1.1653261,0,0,1.1578328,-3.9564384,51.930291)" />
        <ellipse
           transform="matrix(1.1653261,0,0,1.0707089,-3.9564384,23.603105)"
           ry="24.805298"
           rx="6.6297965"
           cy="-326.0542"
           cx="289.15836"
           id="ellipse4720"
           style="color:#000000;clip-rule:nonzero;display:inline;overflow:visible;visibility:visible;opacity:0.9;isolation:auto;mix-blend-mode:normal;color-interpolation:sRGB;color-interpolation-filters:linearRGB;solid-color:#000000;solid-opacity:1;fill:#feffff;fill-opacity:1;fill-rule:nonzero;stroke:#06effe;stroke-width:0.95435816;stroke-linecap:round;stroke-linejoin:miter;stroke-miterlimit:4;stroke-dasharray:none;stroke-dashoffset:0;stroke-opacity:1;marker:none;filter:url(#filter4539);color-rendering:auto;image-rendering:auto;shape-rendering:auto;text-rendering:auto;enable-background:accumulate" />
      </g>
      <g
         transform="matrix(0.89997913,0,0,0.97774567,-102.68784,578.19963)"
         id="g4727">
        <ellipse
           ry="24.805298"
           rx="6.6297965"
           cy="-325.39865"
           cx="272.59341"
           id="ellipse4729"
           style="color:#000000;clip-rule:nonzero;display:inline;overflow:visible;visibility:visible;opacity:0.8;isolation:auto;mix-blend-mode:normal;color-interpolation:sRGB;color-interpolation-filters:linearRGB;solid-color:#000000;solid-opacity:1;fill:#05f0ff;fill-opacity:1;fill-rule:nonzero;stroke:none;stroke-width:3;stroke-linecap:round;stroke-linejoin:miter;stroke-miterlimit:4;stroke-dasharray:none;stroke-dashoffset:0;stroke-opacity:1;marker:none;filter:url(#filter4710);color-rendering:auto;image-rendering:auto;shape-rendering:auto;text-rendering:auto;enable-background:accumulate"
           transform="matrix(1.4992885,0,0,1.3077391,-75.688852,99.470993)" />
        <ellipse
           transform="matrix(1.1653261,0,0,1.1578328,-3.9564384,51.930291)"
           ry="24.805298"
           rx="6.6297965"
           cy="-326.0542"
           cx="289.15836"
           id="ellipse4731"
           style="color:#000000;clip-rule:nonzero;display:inline;overflow:visible;visibility:visible;opacity:0.9;isolation:auto;mix-blend-mode:normal;color-interpolation:sRGB;color-interpolation-filters:linearRGB;solid-color:#000000;solid-opacity:1;fill:#ffffff;fill-opacity:1;fill-rule:nonzero;stroke:#06effe;stroke-width:0.91774952;stroke-linecap:round;stroke-linejoin:miter;stroke-miterlimit:4;stroke-dasharray:none;stroke-dashoffset:0;stroke-opacity:1;marker:none;filter:url(#filter4539);color-rendering:auto;image-rendering:auto;shape-rendering:auto;text-rendering:auto;enable-background:accumulate" />
        <ellipse
           style="color:#000000;clip-rule:nonzero;display:inline;overflow:visible;visibility:visible;opacity:0.9;isolation:auto;mix-blend-mode:normal;color-interpolation:sRGB;color-interpolation-filters:linearRGB;solid-color:#000000;solid-opacity:1;fill:#feffff;fill-opacity:1;fill-rule:nonzero;stroke:#06effe;stroke-width:0.95435816;stroke-linecap:round;stroke-linejoin:miter;stroke-miterlimit:4;stroke-dasharray:none;stroke-dashoffset:0;stroke-opacity:1;marker:none;filter:url(#filter4539);color-rendering:auto;image-rendering:auto;shape-rendering:auto;text-rendering:auto;enable-background:accumulate"
           id="ellipse4733"
           cx="289.15836"
           cy="-326.0542"
           rx="6.6297965"
           ry="24.805298"
           transform="matrix(1.1653261,0,0,1.0707089,-3.9564384,23.603105)" />
      </g>
    </g>
    <path
       sodipodi:nodetypes="ccccccccccc"
       inkscape:connector-curvature="0"
       id="path4856"
       d="m 151.15076,126.35043 h 52 l -3.83503,23.07716 h 63.55122 l -3.35876,-23.77646 52.2352,0.0433 31.62032,64.49975 -16.17922,127.74632 -191.626,-10e-4 -16.03531,-127.74513 z"
       style="fill:none;fill-rule:evenodd;stroke:#d6d6d6;stroke-width:1px;stroke-linecap:butt;stroke-linejoin:round;stroke-opacity:1" />
    <path
       inkscape:connector-curvature="0"
       id="path4858"
       d="M 342.83631,190.19418 H 119.36697"
       style="opacity:0.34299999;fill:#ffffff;fill-opacity:1;fill-rule:evenodd;stroke:#ffffff;stroke-width:1px;stroke-linecap:butt;stroke-linejoin:miter;stroke-opacity:1" />
  </g>
  <g
     id="g4211"
     transform="translate(-65.248239,219.77835)">
    <g
       style="font-style:normal;font-variant:normal;font-weight:300;font-stretch:normal;font-size:38.37256622px;line-height:125%;font-family:'Helvetica Neue';-inkscape-font-specification:'Helvetica Neue Light';letter-spacing:0px;word-spacing:0px;fill:#444444;fill-opacity:1;stroke:none;stroke-width:1px;stroke-linecap:butt;stroke-linejoin:miter;stroke-opacity:1"
       id="text4201"
       transform="matrix(0.51194041,0,0,0.51194041,31.845029,-8.3317098)">
      <path
         d="m 489.86596,-305.3295 -10.51408,27.39801 h 4.95006 l 2.57096,-7.25241 h 10.93618 l 2.57096,7.25241 h 5.14193 l -10.55246,-27.39801 z m -1.68839,16.5002 4.14423,-11.78037 h 0.11512 l 4.10587,11.78037 z"
         style="font-style:normal;font-variant:normal;font-weight:500;font-stretch:normal;font-family:'Helvetica Neue';-inkscape-font-specification:'Helvetica Neue Medium'"
         id="path3407"
         inkscape:connector-curvature="0" />
      <path
         d="m 508.16847,-305.3295 v 27.39801 h 4.79657 v -10.51408 h 7.29079 c 1.91863,0 3.49191,-0.26861 4.7582,-0.80583 1.18955,-0.53721 2.14886,-1.26629 2.83957,-2.11049 0.65233,-0.80582 1.11281,-1.72676 1.34304,-2.72445 0.23024,-0.99769 0.34535,-1.88025 0.38373,-2.76282 0,-0.8442 -0.15349,-1.76514 -0.38373,-2.76283 -0.23023,-0.99768 -0.69071,-1.91863 -1.34304,-2.76282 -0.69071,-0.8442 -1.61165,-1.53491 -2.83957,-2.11049 -1.22792,-0.53722 -2.83957,-0.8442 -4.7582,-0.8442 z m 4.79657,12.96993 v -9.05593 h 7.09893 c 0.61396,0 1.22792,0.0768 1.80351,0.19186 0.53722,0.15349 1.03606,0.38373 1.49653,0.72908 0.4221,0.34536 0.76745,0.80583 1.03606,1.38142 0.23024,0.61396 0.34535,1.34304 0.38373,2.2256 0,0.88257 -0.15349,1.61165 -0.46048,2.18724 -0.30698,0.57559 -0.6907,1.03606 -1.15117,1.38141 -0.46047,0.34536 -0.99769,0.57559 -1.53491,0.72908 -0.57558,0.15349 -1.1128,0.23024 -1.65002,0.23024 z"
         style="font-style:normal;font-variant:normal;font-weight:500;font-stretch:normal;font-family:'Helvetica Neue';-inkscape-font-specification:'Helvetica Neue Medium'"
         id="path3409"
         inkscape:connector-curvature="0" />
      <path
         d="m 538.28134,-305.3295 -10.51408,27.39801 h 4.95006 l 2.57096,-7.25241 h 10.93619 l 2.57096,7.25241 h 5.14192 L 543.3849,-305.3295 Z m -1.68839,16.5002 4.14424,-11.78037 h 0.11512 l 4.10586,11.78037 z"
         style="font-style:normal;font-variant:normal;font-weight:500;font-stretch:normal;font-family:'Helvetica Neue';-inkscape-font-specification:'Helvetica Neue Medium'"
         id="path3411"
         inkscape:connector-curvature="0" />
      <path
         d="m 575.07943,-296.61893 h 4.79657 c -0.15349,-1.45816 -0.57558,-2.8012 -1.18955,-3.95237 -0.65233,-1.15118 -1.49653,-2.11049 -2.53258,-2.91632 -1.03606,-0.80582 -2.22561,-1.41978 -3.56865,-1.84188 -1.38142,-0.4221 -2.8012,-0.65233 -4.3361,-0.65233 -2.07212,0 -3.91401,0.38372 -5.52565,1.15117 -1.61165,0.76745 -2.99306,1.80351 -4.10587,3.10818 -1.15117,1.30467 -1.99537,2.83957 -2.60933,4.56634 -0.61396,1.76513 -0.88257,3.60702 -0.88257,5.52565 0,1.99537 0.26861,3.83725 0.88257,5.56402 0.61396,1.76514 1.45816,3.26167 2.60933,4.56633 1.11281,1.30467 2.49422,2.34073 4.10587,3.10818 1.61164,0.76745 3.45353,1.11281 5.52565,1.11281 1.65002,0 3.18492,-0.26861 4.56633,-0.80583 1.38141,-0.53721 2.57096,-1.26629 3.60702,-2.26398 0.99769,-0.99769 1.80351,-2.14886 2.41747,-3.53028 0.61397,-1.34304 0.95932,-2.83957 1.07444,-4.48959 h -4.68146 c -0.11511,0.99769 -0.34535,1.957 -0.65233,2.8012 -0.34535,0.88257 -0.80582,1.65002 -1.38141,2.30236 -0.61396,0.65233 -1.30467,1.15117 -2.11049,1.5349 -0.8442,0.38372 -1.76514,0.53721 -2.83957,0.53721 -1.45816,0 -2.72446,-0.2686 -3.79889,-0.88257 -1.07443,-0.57558 -1.91863,-1.34304 -2.57096,-2.34072 -0.69071,-0.99769 -1.18955,-2.11049 -1.49653,-3.37679 -0.30698,-1.22792 -0.46047,-2.49421 -0.46047,-3.83725 -0.0384,-1.2663 0.15349,-2.57097 0.46047,-3.83726 0.30698,-1.22792 0.80582,-2.34073 1.49653,-3.33841 0.65233,-0.99769 1.49653,-1.76514 2.57096,-2.3791 1.07443,-0.57559 2.30236,-0.8442 3.79889,-0.88257 0.95931,0 1.84188,0.15349 2.60933,0.4221 0.76745,0.2686 1.41979,0.65233 1.99537,1.1128 0.53722,0.49884 0.99769,1.07443 1.38142,1.72677 0.34535,0.6907 0.61396,1.41978 0.84419,2.18723 z"
         style="font-style:normal;font-variant:normal;font-weight:500;font-stretch:normal;font-family:'Helvetica Neue';-inkscape-font-specification:'Helvetica Neue Medium'"
         id="path3413"
         inkscape:connector-curvature="0" />
      <path
         d="m 584.19892,-305.3295 v 27.39801 h 4.79657 v -12.35596 h 12.47108 v 12.35596 h 4.79657 v -27.39801 h -4.79657 v 10.89781 h -12.47108 v -10.89781 z"
         style="font-style:normal;font-variant:normal;font-weight:500;font-stretch:normal;font-family:'Helvetica Neue';-inkscape-font-specification:'Helvetica Neue Medium'"
         id="path3415"
         inkscape:connector-curvature="0" />
      <path
         d="m 612.04421,-305.3295 v 27.39801 h 19.99211 v -4.14424 h -15.19554 v -8.01986 h 13.81413 v -3.914 h -13.81413 v -7.17567 h 14.92693 v -4.14424 z"
         style="font-style:normal;font-variant:normal;font-weight:500;font-stretch:normal;font-family:'Helvetica Neue';-inkscape-font-specification:'Helvetica Neue Medium'"
         id="path3417"
         inkscape:connector-curvature="0" />
    </g>
    <g
       transform="scale(1.0257435,0.97490256)"
       style="font-style:normal;font-variant:normal;font-weight:300;font-stretch:normal;font-size:109.95664215px;line-height:125%;font-family:'Helvetica Neue';-inkscape-font-specification:'Helvetica Neue Light';letter-spacing:0px;word-spacing:0px;fill:#444444;fill-opacity:1;stroke:none;stroke-width:1px;stroke-linecap:butt;stroke-linejoin:miter;stroke-opacity:1"
       id="text4203">
      <path
         d="m 299.92898,-133.83544 c -0.33775,-1.51987 -0.90067,-2.87086 -1.68874,-4.10926 -0.78808,-1.23841 -1.68874,-2.25165 -2.81456,-3.09602 -1.12583,-0.78808 -2.30795,-1.40728 -3.65894,-1.85761 -1.35098,-0.45033 -2.70197,-0.6755 -4.16555,-0.6755 -2.70198,0 -4.95363,0.50662 -6.86753,1.51987 -1.9139,1.01324 -3.49006,2.36423 -4.72847,4.05297 -1.2384,1.68873 -2.13906,3.54635 -2.70197,5.62912 -0.56292,2.13907 -0.84437,4.27814 -0.84437,6.4735 0,2.19536 0.28145,4.33442 0.84437,6.47349 0.56291,2.13906 1.46357,3.99668 2.70197,5.68541 1.23841,1.68874 2.81457,2.98344 4.72847,3.99668 1.9139,1.01324 4.16555,1.51986 6.86753,1.51986 1.85761,0 3.54635,-0.33774 5.06621,-1.01324 1.46357,-0.6192 2.75828,-1.57615 3.8841,-2.75827 1.06954,-1.12582 1.9139,-2.47681 2.64569,-4.05297 0.6192,-1.57615 1.06953,-3.26489 1.29469,-5.06621 h 3.82781 c -0.28146,2.47681 -0.84436,4.72847 -1.74503,6.69866 -0.90066,2.02648 -2.08278,3.71522 -3.49005,5.06621 -1.46357,1.40728 -3.15231,2.47682 -5.06622,3.2086 -1.9139,0.78808 -4.05297,1.12583 -6.4172,1.12583 -3.15231,0 -5.96687,-0.56292 -8.3311,-1.68874 -2.36424,-1.12582 -4.33443,-2.70198 -5.91059,-4.61588 -1.57615,-1.91391 -2.75826,-4.10926 -3.54635,-6.64237 -0.78807,-2.47682 -1.18211,-5.1225 -1.18211,-7.93706 0,-2.75828 0.39404,-5.40397 1.18211,-7.93707 0.78809,-2.47682 1.9702,-4.72847 3.54635,-6.64237 1.51987,-1.9139 3.54635,-3.49006 5.91059,-4.61588 2.36423,-1.12583 5.17879,-1.68874 8.3311,-1.74503 1.9139,0 3.77152,0.28146 5.57283,0.84437 1.80132,0.56291 3.49006,1.40728 4.95364,2.5331 1.46357,1.12583 2.70197,2.47682 3.71522,4.05297 1.01324,1.63245 1.63245,3.49006 1.9139,5.57284 z"
         style="font-style:normal;font-variant:normal;font-weight:300;font-stretch:normal;font-family:'Helvetica Neue';-inkscape-font-specification:'Helvetica Neue Light';stroke-width:0.51194042px"
         id="path3420"
         inkscape:connector-curvature="0" />
      <path
         d="m 311.81346,-125.89837 c 0,2.19536 0.28146,4.33442 0.84437,6.47349 0.56292,2.13906 1.46358,3.99668 2.70198,5.68541 1.23841,1.68874 2.81456,2.98344 4.72847,3.99668 1.9139,1.01324 4.16555,1.51986 6.86753,1.51986 2.64569,0 4.89734,-0.50662 6.81124,-1.51986 1.9139,-1.01324 3.43377,-2.30794 4.67217,-3.99668 1.23841,-1.68873 2.13907,-3.54635 2.70198,-5.68541 0.56292,-2.13907 0.84437,-4.27813 0.90066,-6.47349 0,-2.19536 -0.33774,-4.33443 -0.90066,-6.4735 -0.56291,-2.08277 -1.46357,-3.94039 -2.70198,-5.62912 -1.2384,-1.68874 -2.75827,-3.03973 -4.67217,-4.05297 -1.9139,-1.01325 -4.16555,-1.51987 -6.81124,-1.51987 -2.70198,0 -4.95363,0.50662 -6.86753,1.51987 -1.91391,1.01324 -3.49006,2.36423 -4.72847,4.05297 -1.2384,1.68873 -2.13906,3.54635 -2.70198,5.62912 -0.56291,2.13907 -0.84437,4.27814 -0.84437,6.4735 z m -3.8278,0 c 0,-2.75828 0.39404,-5.40397 1.18211,-7.93707 0.78808,-2.47682 1.9702,-4.72847 3.54635,-6.64237 1.51987,-1.9139 3.54635,-3.49006 5.91059,-4.61588 2.36423,-1.12583 5.17879,-1.68874 8.3311,-1.74503 3.15231,0 5.91058,0.6192 8.27482,1.74503 2.36422,1.12582 4.33442,2.70198 5.91057,4.61588 1.57616,1.9139 2.75828,4.16555 3.54635,6.64237 0.78808,2.5331 1.18212,5.17879 1.18212,7.93707 0,2.81456 -0.39404,5.46024 -1.18212,7.93706 -0.78807,2.53311 -1.97019,4.72846 -3.54635,6.64237 -1.57615,1.9139 -3.54635,3.49006 -5.91057,4.61588 -2.36424,1.12582 -5.12251,1.68874 -8.27482,1.68874 -3.15231,0 -5.96687,-0.56292 -8.3311,-1.68874 -2.36424,-1.12582 -4.33443,-2.70198 -5.91059,-4.61588 -1.57615,-1.91391 -2.75827,-4.10926 -3.54635,-6.64237 -0.78807,-2.47682 -1.18211,-5.1225 -1.18211,-7.93706 z"
         style="font-style:normal;font-variant:normal;font-weight:300;font-stretch:normal;font-family:'Helvetica Neue';-inkscape-font-specification:'Helvetica Neue Light';stroke-width:0.51194042px"
         id="path3422"
         inkscape:connector-curvature="0" />
      <path
         d="m 355.62124,-126.91162 h 14.29798 c 1.12582,0 2.25165,-0.16887 3.32118,-0.50662 1.01325,-0.33775 1.91391,-0.90066 2.75828,-1.57616 0.73178,-0.67549 1.40728,-1.46357 1.85761,-2.42052 0.45033,-0.95695 0.67549,-2.08277 0.73178,-3.32118 0,-2.42052 -0.73178,-4.39072 -2.13906,-5.85429 -1.46358,-1.40728 -3.60265,-2.08278 -6.52979,-2.13907 h -14.29798 z m -3.8278,-19.08273 h 18.40724 c 1.63244,0 3.2086,0.22516 4.67217,0.6192 1.46357,0.45033 2.75827,1.06954 3.8841,1.9139 1.12582,0.84437 1.97019,1.91391 2.64568,3.2649 0.6755,1.35099 1.01325,2.87085 1.01325,4.67217 0,2.5894 -0.6755,4.78476 -1.9702,6.64237 -1.35099,1.9139 -3.26489,3.09602 -5.85429,3.60264 v 0.11258 c 1.2947,0.22517 2.36424,0.56291 3.2649,1.06953 0.84437,0.50663 1.51986,1.12583 2.08277,1.91391 0.56292,0.78808 0.95695,1.74502 1.18212,2.75827 0.22517,1.01324 0.39404,2.13906 0.50662,3.32118 0,0.6755 0.0563,1.51986 0.11258,2.47682 0,1.01324 0.11259,1.97019 0.22517,2.98343 0.0563,1.01325 0.28145,1.9139 0.50662,2.81457 0.22517,0.90066 0.56291,1.57615 1.01324,2.02648 h -4.22184 c -0.22516,-0.33775 -0.45033,-0.78808 -0.56291,-1.35099 -0.11259,-0.56291 -0.22517,-1.12582 -0.28146,-1.68874 -0.0563,-0.56291 -0.11258,-1.18211 -0.11258,-1.74503 -0.0563,-0.56291 -0.11258,-1.01324 -0.11258,-1.46357 -0.11259,-1.40728 -0.22517,-2.81456 -0.39404,-4.22184 -0.16888,-1.40728 -0.50663,-2.64569 -1.06954,-3.77151 -0.56291,-1.12583 -1.35099,-1.9702 -2.36423,-2.70199 -1.01325,-0.6192 -2.42052,-0.95694 -4.22184,-0.90066 h -14.52315 v 17.84433 h -3.8278 z"
         style="font-style:normal;font-variant:normal;font-weight:300;font-stretch:normal;font-family:'Helvetica Neue';-inkscape-font-specification:'Helvetica Neue Light';stroke-width:0.51194042px"
         id="path3424"
         inkscape:connector-curvature="0" />
      <path
         d="m 389.39423,-145.99435 h 13.90394 c 6.07946,0.16887 10.69534,1.9139 13.79136,5.1788 3.09601,3.26488 4.67217,8.27481 4.67217,14.91718 0,6.69865 -1.57616,11.70857 -4.67217,14.97346 -3.09602,3.2649 -7.7119,5.00993 -13.79136,5.12251 h -13.90394 z m 3.82781,36.92706 h 8.16223 c 2.87086,0 5.34767,-0.28146 7.43044,-0.90066 2.08278,-0.61921 3.82781,-1.63245 5.1788,-2.98344 1.2947,-1.35099 2.30794,-3.09602 2.98344,-5.23508 0.6192,-2.13907 0.90065,-4.67218 0.95695,-7.7119 0,-2.98344 -0.33775,-5.57284 -0.95695,-7.71191 -0.6755,-2.13907 -1.63245,-3.88409 -2.98344,-5.23508 -1.35099,-1.35099 -3.09602,-2.30794 -5.1788,-2.92715 -2.08277,-0.6192 -4.55958,-0.95695 -7.43044,-0.95695 h -8.16223 z"
         style="font-style:normal;font-variant:normal;font-weight:300;font-stretch:normal;font-family:'Helvetica Neue';-inkscape-font-specification:'Helvetica Neue Light';stroke-width:0.51194042px"
         id="path3426"
         inkscape:connector-curvature="0" />
      <path
         d="m 429.67326,-125.89837 c 0,2.19536 0.28146,4.33442 0.84437,6.47349 0.56291,2.13906 1.46357,3.99668 2.70198,5.68541 1.23841,1.68874 2.81456,2.98344 4.72846,3.99668 1.91391,1.01324 4.16556,1.51986 6.86754,1.51986 2.64568,0 4.89734,-0.50662 6.81124,-1.51986 1.9139,-1.01324 3.43376,-2.30794 4.67217,-3.99668 1.23841,-1.68873 2.13907,-3.54635 2.70198,-5.68541 0.56291,-2.13907 0.84437,-4.27813 0.90066,-6.47349 0,-2.19536 -0.33775,-4.33443 -0.90066,-6.4735 -0.56291,-2.08277 -1.46357,-3.94039 -2.70198,-5.62912 -1.23841,-1.68874 -2.75827,-3.03973 -4.67217,-4.05297 -1.9139,-1.01325 -4.16556,-1.51987 -6.81124,-1.51987 -2.70198,0 -4.95363,0.50662 -6.86754,1.51987 -1.9139,1.01324 -3.49005,2.36423 -4.72846,4.05297 -1.23841,1.68873 -2.13907,3.54635 -2.70198,5.62912 -0.56291,2.13907 -0.84437,4.27814 -0.84437,6.4735 z m -3.82781,0 c 0,-2.75828 0.39405,-5.40397 1.18212,-7.93707 0.78808,-2.47682 1.97019,-4.72847 3.54635,-6.64237 1.51986,-1.9139 3.54635,-3.49006 5.91058,-4.61588 2.36424,-1.12583 5.1788,-1.68874 8.33111,-1.74503 3.15231,0 5.91058,0.6192 8.27481,1.74503 2.36423,1.12582 4.33443,2.70198 5.91058,4.61588 1.57616,1.9139 2.75827,4.16555 3.54635,6.64237 0.78807,2.5331 1.18211,5.17879 1.18211,7.93707 0,2.81456 -0.39404,5.46024 -1.18211,7.93706 -0.78808,2.53311 -1.97019,4.72846 -3.54635,6.64237 -1.57615,1.9139 -3.54635,3.49006 -5.91058,4.61588 -2.36423,1.12582 -5.1225,1.68874 -8.27481,1.68874 -3.15231,0 -5.96687,-0.56292 -8.33111,-1.68874 -2.36423,-1.12582 -4.33442,-2.70198 -5.91058,-4.61588 -1.57616,-1.91391 -2.75827,-4.10926 -3.54635,-6.64237 -0.78807,-2.47682 -1.18212,-5.1225 -1.18212,-7.93706 z"
         style="font-style:normal;font-variant:normal;font-weight:300;font-stretch:normal;font-family:'Helvetica Neue';-inkscape-font-specification:'Helvetica Neue Light';stroke-width:0.51194042px"
         id="path3428"
         inkscape:connector-curvature="0" />
      <path
         d="m 465.26252,-145.99435 h 4.05297 l 13.05957,35.97011 h 0.11258 l 12.94699,-35.97011 h 4.05297 l -14.91718,40.19195 h -4.44701 z"
         style="font-style:normal;font-variant:normal;font-weight:300;font-stretch:normal;font-family:'Helvetica Neue';-inkscape-font-specification:'Helvetica Neue Light';stroke-width:0.51194042px"
         id="path3430"
         inkscape:connector-curvature="0" />
      <path
         d="m 505.68317,-121.56395 h 15.81784 l -7.7682,-20.6026 z m 6.07945,-24.4304 h 4.27813 l 15.76155,40.19195 h -4.10925 l -4.89734,-12.49666 H 504.50105 L 499.66,-105.8024 h -4.05297 z"
         style="font-style:normal;font-variant:normal;font-weight:300;font-stretch:normal;font-family:'Helvetica Neue';-inkscape-font-specification:'Helvetica Neue Light';stroke-width:0.51194042px"
         id="path3432"
         inkscape:connector-curvature="0" />
    </g>
    <g
       style="font-style:normal;font-variant:normal;font-weight:300;font-stretch:normal;font-size:25.20386696px;line-height:125%;font-family:'Helvetica Neue';-inkscape-font-specification:'Helvetica Neue Light';letter-spacing:0px;word-spacing:0px;fill:#444444;fill-opacity:1;stroke:none;stroke-width:1px;stroke-linecap:butt;stroke-linejoin:miter;stroke-opacity:1"
       id="text4207"
       transform="matrix(0.51194041,0,0,0.51194041,31.845029,-8.3317098)">
      <path
         d="m 994.90079,-263.51401 v 2.72202 h 5.69611 v 15.27354 h 3.1504 v -15.27354 h 5.7213 v -2.72202 z"
         style="font-style:normal;font-variant:normal;font-weight:500;font-stretch:normal;font-family:'Helvetica Neue';-inkscape-font-specification:'Helvetica Neue Medium'"
         id="path3435"
         inkscape:connector-curvature="0" />
      <path
         d="m 1011.529,-263.51401 v 17.99556 h 2.9993 v -13.88733 h 0.05 l 4.9904,13.88733 h 2.596 l 4.9903,-13.88733 h 0.05 v 13.88733 h 2.9993 v -17.99556 h -4.3855 l -4.8391,14.08896 h -0.05 l -4.9652,-14.08896 h -4.4359 z"
         style="font-style:normal;font-variant:normal;font-weight:500;font-stretch:normal;font-family:'Helvetica Neue';-inkscape-font-specification:'Helvetica Neue Medium'"
         id="path3437"
         inkscape:connector-curvature="0" />
    </g>
  </g>
</svg>
